<svg xmlns="http://www.w3.org/2000/svg" xmlns:xlink="http://www.w3.org/1999/xlink" width="1920" zoomAndPan="magnify" viewBox="0 0 1440 449.999984" height="600" preserveAspectRatio="xMidYMid meet" version="1.0"><defs><clipPath id="87560f5848"><path d="M 0 165.253906 L 520 165.253906 L 520 450 L 0 450 Z M 0 165.253906 " clip-rule="nonzero"/></clipPath><clipPath id="f6538389d5"><path d="M 214.21875 165.253906 C 221.964844 165.253906 229.757812 165.253906 237.492188 165.253906 C 299.140625 172.996094 337.667969 198.769531 355.21875 240.941406 C 457.996094 235.316406 532.722656 315.058594 487.183594 393.316406 C 502.328125 409.761719 514.960938 428.15625 519.523438 452.847656 C 519.523438 459.921875 519.523438 466.976562 519.523438 474.046875 C 505.925781 536.886719 447.414062 579.347656 351.359375 567.914062 C 326.644531 600.179688 282.664062 632.492188 214.230469 628.464844 C 178.859375 626.347656 154.25 614.078125 132.707031 599.175781 C 110.011719 611.5625 85.4375 621.289062 49.925781 621.394531 C -32.226562 621.578125 -87.1875 573.84375 -88.519531 508.371094 C -141.332031 493.054688 -177.101562 464.460938 -186.839844 415.539062 C -186.839844 408.46875 -186.839844 401.378906 -186.839844 394.339844 C -176.089844 345.859375 -142.265625 315.40625 -85.945312 302.496094 C -89.328125 220.714844 23.328125 169.613281 115.878906 205.644531 C 137.914062 187.828125 169.089844 168.394531 214.21875 165.253906 Z M 214.21875 165.253906 " clip-rule="nonzero"/></clipPath><clipPath id="211c035a79"><path d="M 0 0.253906 L 520 0.253906 L 520 285 L 0 285 Z M 0 0.253906 " clip-rule="nonzero"/></clipPath><clipPath id="0eec7e8741"><path d="M 214.21875 0.253906 C 221.964844 0.253906 229.757812 0.253906 237.492188 0.253906 C 299.140625 7.996094 337.667969 33.769531 355.21875 75.941406 C 457.996094 70.316406 532.722656 150.058594 487.183594 228.316406 C 502.328125 244.761719 514.960938 263.15625 519.523438 287.847656 C 519.523438 294.921875 519.523438 301.976562 519.523438 309.046875 C 505.925781 371.886719 447.414062 414.347656 351.359375 402.914062 C 326.644531 435.179688 282.664062 467.492188 214.230469 463.464844 C 178.859375 461.347656 154.25 449.078125 132.707031 434.175781 C 110.011719 446.5625 85.4375 456.289062 49.925781 456.394531 C -32.226562 456.578125 -87.1875 408.84375 -88.519531 343.371094 C -141.332031 328.054688 -177.101562 299.460938 -186.839844 250.539062 C -186.839844 243.46875 -186.839844 236.378906 -186.839844 229.339844 C -176.089844 180.859375 -142.265625 150.40625 -85.945312 137.496094 C -89.328125 55.714844 23.328125 4.613281 115.878906 40.644531 C 137.914062 22.828125 169.089844 3.394531 214.21875 0.253906 Z M 214.21875 0.253906 " clip-rule="nonzero"/></clipPath><clipPath id="636d9618f7"><rect x="0" width="520" y="0" height="285"/></clipPath><clipPath id="49814506f4"><path d="M 361.148438 272.5625 L 1068 272.5625 L 1068 450 L 361.148438 450 Z M 361.148438 272.5625 " clip-rule="nonzero"/></clipPath><clipPath id="91c32318fa"><path d="M 762.207031 272.5625 C 769.953125 272.5625 777.75 272.5625 785.480469 272.5625 C 847.128906 280.304688 885.660156 306.078125 903.207031 348.25 C 1005.984375 342.625 1080.714844 422.363281 1035.171875 500.625 C 1050.316406 517.070312 1062.949219 535.464844 1067.511719 560.15625 C 1067.511719 567.226562 1067.511719 574.285156 1067.511719 581.355469 C 1053.914062 644.191406 995.40625 686.65625 899.347656 675.222656 C 874.632812 707.488281 830.65625 739.796875 762.222656 735.773438 C 726.847656 733.65625 702.242188 721.386719 680.695312 706.480469 C 658.003906 718.871094 633.425781 728.597656 597.914062 728.703125 C 515.761719 728.886719 460.804688 681.152344 459.472656 615.679688 C 406.65625 600.359375 370.886719 571.769531 361.148438 522.847656 C 361.148438 515.773438 361.148438 508.6875 361.148438 501.644531 C 371.898438 453.167969 405.722656 422.714844 462.042969 409.804688 C 458.660156 328.023438 571.316406 276.921875 663.867188 312.953125 C 685.902344 295.136719 717.078125 275.703125 762.207031 272.5625 Z M 762.207031 272.5625 " clip-rule="nonzero"/></clipPath><clipPath id="532c79fccc"><path d="M 0.148438 0.5625 L 707 0.5625 L 707 178 L 0.148438 178 Z M 0.148438 0.5625 " clip-rule="nonzero"/></clipPath><clipPath id="682d262b1a"><path d="M 401.207031 0.5625 C 408.953125 0.5625 416.75 0.5625 424.480469 0.5625 C 486.128906 8.304688 524.660156 34.078125 542.207031 76.25 C 644.984375 70.625 719.714844 150.363281 674.171875 228.625 C 689.316406 245.070312 701.949219 263.464844 706.511719 288.15625 C 706.511719 295.226562 706.511719 302.285156 706.511719 309.355469 C 692.914062 372.191406 634.40625 414.65625 538.347656 403.222656 C 513.632812 435.488281 469.65625 467.796875 401.222656 463.773438 C 365.847656 461.65625 341.242188 449.386719 319.695312 434.480469 C 297.003906 446.871094 272.425781 456.597656 236.914062 456.703125 C 154.761719 456.886719 99.804688 409.152344 98.472656 343.679688 C 45.65625 328.359375 9.886719 299.769531 0.148438 250.847656 C 0.148438 243.773438 0.148438 236.6875 0.148438 229.644531 C 10.898438 181.167969 44.722656 150.714844 101.042969 137.804688 C 97.660156 56.023438 210.316406 4.921875 302.867188 40.953125 C 324.902344 23.136719 356.078125 3.703125 401.207031 0.5625 Z M 401.207031 0.5625 " clip-rule="nonzero"/></clipPath><clipPath id="2c54d36c0d"><rect x="0" width="707" y="0" height="178"/></clipPath><clipPath id="72a9b4eddf"><path d="M 997.164062 152.722656 L 1440 152.722656 L 1440 450 L 997.164062 450 Z M 997.164062 152.722656 " clip-rule="nonzero"/></clipPath><clipPath id="f9ecac7e60"><path d="M 1398.222656 152.722656 C 1405.96875 152.722656 1413.765625 152.722656 1421.496094 152.722656 C 1483.144531 160.464844 1521.675781 186.234375 1539.222656 228.40625 C 1642.003906 222.78125 1716.730469 302.523438 1671.1875 380.78125 C 1686.332031 397.226562 1698.964844 415.625 1703.527344 440.3125 C 1703.527344 447.386719 1703.527344 454.441406 1703.527344 461.511719 C 1689.929688 524.351562 1631.421875 566.8125 1535.363281 555.378906 C 1510.648438 587.644531 1466.671875 619.957031 1398.238281 615.933594 C 1362.863281 613.8125 1338.257812 601.546875 1316.710938 586.640625 C 1294.019531 599.03125 1269.441406 608.753906 1233.929688 608.859375 C 1151.777344 609.042969 1096.820312 561.308594 1095.488281 495.835938 C 1042.671875 480.519531 1006.902344 451.925781 997.164062 403.003906 C 997.164062 395.933594 997.164062 388.84375 997.164062 381.804688 C 1007.914062 333.324219 1041.738281 302.871094 1098.058594 289.964844 C 1094.675781 208.183594 1207.332031 157.078125 1299.882812 193.109375 C 1321.917969 175.292969 1353.09375 155.859375 1398.222656 152.722656 Z M 1398.222656 152.722656 " clip-rule="nonzero"/></clipPath><clipPath id="5877d72a34"><path d="M 0.164062 0.722656 L 443 0.722656 L 443 298 L 0.164062 298 Z M 0.164062 0.722656 " clip-rule="nonzero"/></clipPath><clipPath id="0b1ec650cf"><path d="M 401.222656 0.722656 C 408.96875 0.722656 416.765625 0.722656 424.496094 0.722656 C 486.144531 8.464844 524.675781 34.234375 542.222656 76.40625 C 645.003906 70.78125 719.730469 150.523438 674.1875 228.78125 C 689.332031 245.226562 701.964844 263.625 706.527344 288.3125 C 706.527344 295.386719 706.527344 302.441406 706.527344 309.511719 C 692.929688 372.351562 634.421875 414.8125 538.363281 403.378906 C 513.648438 435.644531 469.671875 467.957031 401.238281 463.933594 C 365.863281 461.8125 341.257812 449.546875 319.710938 434.640625 C 297.019531 447.03125 272.441406 456.753906 236.929688 456.859375 C 154.777344 457.042969 99.820312 409.308594 98.488281 343.835938 C 45.671875 328.519531 9.902344 299.925781 0.164062 251.003906 C 0.164062 243.933594 0.164062 236.84375 0.164062 229.804688 C 10.914062 181.324219 44.738281 150.871094 101.058594 137.964844 C 97.675781 56.183594 210.332031 5.078125 302.882812 41.109375 C 324.917969 23.292969 356.09375 3.859375 401.222656 0.722656 Z M 401.222656 0.722656 " clip-rule="nonzero"/></clipPath><clipPath id="4eeca4a1ee"><rect x="0" width="443" y="0" height="298"/></clipPath></defs><g clip-path="url(#87560f5848)"><g clip-path="url(#f6538389d5)"><g transform="matrix(1, 0, 0, 1, 0, 165)"><g clip-path="url(#636d9618f7)"><g clip-path="url(#211c035a79)"><g clip-path="url(#0eec7e8741)"><path fill="#6cb4a0" d="M -186.839844 0.253906 L 519.351562 0.253906 L 519.351562 463.808594 L -186.839844 463.808594 Z M -186.839844 0.253906 " fill-opacity="1" fill-rule="nonzero"/></g></g></g></g></g></g><g clip-path="url(#49814506f4)"><g clip-path="url(#91c32318fa)"><g transform="matrix(1, 0, 0, 1, 361, 272)"><g clip-path="url(#2c54d36c0d)"><g clip-path="url(#532c79fccc)"><g clip-path="url(#682d262b1a)"><path fill="#f9c223" d="M 0.148438 0.5625 L 706.339844 0.5625 L 706.339844 464.117188 L 0.148438 464.117188 Z M 0.148438 0.5625 " fill-opacity="1" fill-rule="nonzero"/></g></g></g></g></g></g><g clip-path="url(#72a9b4eddf)"><g clip-path="url(#f9ecac7e60)"><g transform="matrix(1, 0, 0, 1, 997, 152)"><g clip-path="url(#4eeca4a1ee)"><g clip-path="url(#5877d72a34)"><g clip-path="url(#0b1ec650cf)"><path fill="#499ee0" d="M 0.164062 0.722656 L 706.355469 0.722656 L 706.355469 464.273438 L 0.164062 464.273438 Z M 0.164062 0.722656 " fill-opacity="1" fill-rule="nonzero"/></g></g></g></g></g></g></svg>